<svg width="327" height="80" viewBox="0 0 327 80" fill="none" xmlns="http://www.w3.org/2000/svg">
<path d="M0 0H327V72C327 76.4183 323.418 80 319 80H8C3.58173 80 0 76.4183 0 72V0Z" fill="#F7F7F7"/>
<path d="M40 24C31.1553 24 24 31.1553 24 40C24 48.8447 31.1553 56 40 56C48.8447 56 56 48.8447 56 40C56 31.1553 48.8447 24 40 24ZM48.2981 40.3975C46.5093 47.6025 34.6335 50.6335 29.118 43.1801C31.205 45.1677 34.882 45.3665 37.1677 42.9814C35.8261 43.1801 34.8323 41.8385 36.472 41.1429C34.9814 41.2919 34.1366 40.4969 33.7888 39.8509C34.1366 39.5031 34.5342 39.3043 35.2795 39.2547C33.6398 38.8571 33.0435 38.0621 32.8447 37.0683C33.2919 36.9689 33.8882 36.8696 34.1863 36.9193C32.7453 36.1739 32.2484 35.0311 32.3478 34.1863C34.9317 35.1304 36.5714 35.9255 37.913 36.6211C38.4099 36.8696 38.9565 37.3665 39.5528 37.9627C40.3478 35.8758 41.2919 33.7391 42.9814 32.6957C42.9317 32.9441 42.8323 33.1429 42.6335 33.3416C43.0807 32.8944 43.7267 32.5963 44.323 32.5466C44.2733 32.9938 43.5776 33.2919 43.1801 33.441C43.4783 33.3416 45.118 32.5963 45.3168 33.0435C45.5155 33.5404 44.1739 33.7391 43.9752 33.8385C43.8261 33.8882 43.6273 33.9379 43.4783 34.0373C45.5652 33.8385 47.5031 35.5279 48.0994 37.6646C48.1491 37.8137 48.1988 37.9627 48.1988 38.1615C48.9441 38.4596 50.3354 38.1615 50.7826 37.8634C50.4845 38.6087 49.6397 39.1553 48.3975 39.2547C48.9938 39.5031 50.087 39.6522 50.882 39.5031C50.3851 39.9503 49.5901 40.3975 48.2981 40.3975Z" fill="#85868D"/>
<g clip-path="url(#clip0_122_5049)">
<path d="M81.1665 24C72.3218 24 65.1665 31.1553 65.1665 40C65.1665 48.8447 72.3218 56 81.1665 56C90.0112 56 97.1665 48.8447 97.1665 40C97.1665 31.1553 90.0112 24 81.1665 24ZM85.1417 39.8509H82.4584V48.9938H78.7814V39.8509H76.8932V36.8199H78.7814V34.9814C78.7814 32.4472 80.0236 30.9565 83.005 30.9565C84.0485 30.9565 84.2472 30.9565 85.2907 30.9565V34.0373C84.7938 34.0373 84.0982 34.0373 83.7007 34.0373C82.5081 34.0373 82.4584 34.5342 82.4584 35.3789V36.8199H85.3901L85.1417 39.8509Z" fill="#85868D"/>
</g>
<path d="M122.333 24C113.489 24 106.333 31.1553 106.333 40C106.333 48.8447 113.489 56 122.333 56C131.178 56 138.333 48.8447 138.333 40C138.333 31.1553 131.178 24 122.333 24ZM117.365 48.1988H113.737V36.472H117.365V48.1988ZM115.576 35.1801C114.483 35.1801 113.787 34.4348 113.787 33.4907C113.787 32.4969 114.483 31.8012 115.576 31.8012C116.669 31.8012 117.365 32.5466 117.414 33.4907C117.414 34.4348 116.669 35.1801 115.576 35.1801ZM130.93 48.1988H127.203V41.6894C127.203 40.1988 126.656 39.1553 125.315 39.1553C124.271 39.1553 123.526 39.8509 123.278 40.4969C123.178 40.7453 123.129 41.0932 123.129 41.3913V48.1491H119.452V36.4224H122.731V38.0124H122.83C123.327 37.2671 124.719 36.1242 126.656 36.1242C129.091 36.1242 130.93 37.7143 130.93 41.1429V48.1988Z" fill="#85868D"/>
<path d="M167.272 32.4027C166.288 32.3573 165.992 32.3493 163.5 32.3493C161.008 32.3493 160.713 32.3587 159.729 32.4027C157.197 32.5187 156.019 33.7173 155.903 36.2293C155.859 37.2133 155.848 37.508 155.848 40C155.848 42.492 155.859 42.7867 155.903 43.772C156.019 46.2773 157.192 47.4827 159.729 47.5987C160.712 47.6427 161.008 47.6533 163.5 47.6533C165.993 47.6533 166.288 47.644 167.272 47.5987C169.804 47.484 170.981 46.2813 171.099 43.772C171.143 42.788 171.152 42.492 171.152 40C171.152 37.508 171.143 37.2133 171.099 36.2293C170.981 33.7187 169.801 32.5187 167.272 32.4027ZM163.5 44.7933C160.853 44.7933 158.707 42.648 158.707 40C158.707 37.3533 160.853 35.208 163.5 35.208C166.147 35.208 168.293 37.3533 168.293 40C168.293 42.6467 166.147 44.7933 163.5 44.7933ZM168.483 36.1387C167.864 36.1387 167.363 35.6373 167.363 35.0187C167.363 34.4 167.864 33.8987 168.483 33.8987C169.101 33.8987 169.603 34.4 169.603 35.0187C169.603 35.636 169.101 36.1387 168.483 36.1387ZM166.611 40C166.611 41.7187 165.217 43.1107 163.5 43.1107C161.783 43.1107 160.389 41.7187 160.389 40C160.389 38.2813 161.783 36.8893 163.5 36.8893C165.217 36.8893 166.611 38.2813 166.611 40ZM163.5 24C154.664 24 147.5 31.164 147.5 40C147.5 48.836 154.664 56 163.5 56C172.336 56 179.5 48.836 179.5 40C179.5 31.164 172.336 24 163.5 24ZM172.777 43.848C172.624 47.2413 170.735 49.1213 167.349 49.2773C166.353 49.3227 166.035 49.3333 163.5 49.3333C160.965 49.3333 160.648 49.3227 159.652 49.2773C156.26 49.1213 154.379 47.2387 154.223 43.848C154.177 42.8533 154.167 42.5347 154.167 40C154.167 37.4653 154.177 37.148 154.223 36.152C154.379 32.76 156.261 30.8787 159.652 30.724C160.648 30.6773 160.965 30.6667 163.5 30.6667C166.035 30.6667 166.353 30.6773 167.349 30.724C170.743 30.88 172.625 32.7667 172.777 36.152C172.823 37.148 172.833 37.4653 172.833 40C172.833 42.5347 172.823 42.8533 172.777 43.848Z" fill="#85868D"/>
<path d="M204.667 24C195.831 24 188.667 31.164 188.667 40C188.667 48.836 195.831 56 204.667 56C213.503 56 220.667 48.836 220.667 40C220.667 31.164 213.503 24 204.667 24ZM207.624 48.8213C207.152 48.9133 207 48.6227 207 48.3733V45.812C207 44.9413 206.695 44.3733 206.359 44.084C208.439 43.8533 210.623 43.064 210.623 39.4787C210.623 38.4587 210.259 37.6267 209.661 36.9733C209.757 36.7373 210.077 35.788 209.569 34.5027C209.569 34.5027 208.787 34.252 207.005 35.4587C206.257 35.2533 205.46 35.1507 204.667 35.1467C203.873 35.1507 203.076 35.2533 202.329 35.46C200.547 34.2533 199.763 34.504 199.763 34.504C199.257 35.7893 199.576 36.7387 199.673 36.9733C199.076 37.6267 198.711 38.4587 198.711 39.4787C198.711 43.0547 200.889 43.8547 202.963 44.0907C202.696 44.324 202.455 44.7347 202.371 45.3387C201.837 45.5773 200.487 45.9893 199.655 44.5627C199.655 44.5627 199.161 43.6667 198.224 43.6C198.224 43.6 197.313 43.588 198.16 44.168C198.16 44.168 198.773 44.4547 199.196 45.5333C199.196 45.5333 199.736 47.2 202.333 46.6347V48.372C202.333 48.6187 202.183 48.908 201.717 48.8213C198.008 47.588 195.333 44.0893 195.333 39.9667C195.333 34.8107 199.513 30.6333 204.667 30.6333C209.82 30.6333 214 34.8107 214 39.9667C214 44.088 211.329 47.5867 207.624 48.8213Z" fill="#85868D"/>
<path d="M241.62 38.4467H239V35.968H241.377C243.881 35.968 243.572 38.4467 241.62 38.4467ZM249.339 39.8573H252.837C252.684 37.608 249.691 37.444 249.339 39.8573ZM241.472 40.3853H239V42.9813H241.432C243.808 42.98 243.663 40.3853 241.472 40.3853ZM261.833 40C261.833 48.836 254.669 56 245.833 56C236.997 56 229.833 48.836 229.833 40C229.833 31.164 236.997 24 245.833 24C254.669 24 261.833 31.164 261.833 40ZM244.024 39.0227C246.248 37.8853 246.167 33.7147 241.908 33.652H236.5V45.292H241.528C246.805 45.292 246.716 40.0027 244.024 39.0227ZM248.5 34.8013H253.833V33.6347H248.5V34.8013ZM255.091 39.7253C254.364 35.052 247.02 34.7773 247.02 40.888C247.02 46.9227 253.927 45.9787 254.952 42.968H252.488C251.628 43.9653 249.144 43.676 249.283 41.3893H255.163C255.175 40.6493 255.151 40.1187 255.091 39.7253Z" fill="#85868D"/>
<path d="M286.273 37.3133C284.381 37.8693 282.127 38.156 279.517 38.1747C280.057 35.9693 281.541 34.1347 283.521 33.1293C284.557 34.484 285.473 35.88 286.273 37.3133ZM287.56 39.8867C287.395 39.5133 287.221 39.1413 287.039 38.7733C284.876 39.4533 282.291 39.7987 279.3 39.8027L279.289 40C279.289 41.872 279.961 43.5893 281.076 44.9267C282.764 42.392 284.931 40.708 287.56 39.8867ZM282.267 46.0747C284.359 47.708 287.161 48.1933 289.765 47.1893C289.429 45.2053 288.899 43.2693 288.179 41.3867C285.753 42.1093 283.799 43.672 282.267 46.0747ZM291.7 33.9013C290.397 32.896 288.771 32.2893 287 32.2893C286.347 32.2893 285.715 32.38 285.109 32.5347C286.128 33.9053 287.031 35.316 287.823 36.764C289.471 36.0653 290.761 35.1107 291.7 33.9013ZM303 40C303 48.836 295.836 56 287 56C278.164 56 271 48.836 271 40C271 31.164 278.164 24 287 24C295.836 24 303 31.164 303 40ZM296.333 40C296.333 34.8453 292.153 30.6667 287 30.6667C281.847 30.6667 277.667 34.8453 277.667 40C277.667 45.1547 281.847 49.3333 287 49.3333C292.153 49.3333 296.333 45.1547 296.333 40ZM288.568 38.2013C288.777 38.6333 288.975 39.0693 289.164 39.508C290.844 39.2187 292.685 39.236 294.688 39.564C294.591 37.8413 293.933 36.2653 292.883 35.0267C291.807 36.3667 290.363 37.424 288.568 38.2013ZM289.787 41.044C290.439 42.7893 290.94 44.5787 291.279 46.408C293.028 45.2347 294.267 43.3627 294.608 41.196C292.852 40.892 291.245 40.8387 289.787 41.044Z" fill="#85868D"/>
<defs>
<clipPath id="clip0_122_5049">
<rect width="32" height="32" fill="white" transform="translate(65.1665 24)"/>
</clipPath>
</defs>
</svg>
