<svg width="32" height="32" viewBox="0 0 32 32" fill="none" xmlns="http://www.w3.org/2000/svg">
    <path
        d="M19.04 26.39L19.052 26.397C20.1141 27.0732 21.3751 27.3669 22.6267 27.2297C23.8783 27.0924 25.0456 26.5323 25.936 25.642L26.71 24.868C27.0557 24.5219 27.2498 24.0527 27.2498 23.5635C27.2498 23.0743 27.0557 22.6051 26.71 22.259L23.449 19C23.1028 18.6543 22.6336 18.4601 22.1445 18.4601C21.6553 18.4601 21.1861 18.6543 20.84 19V19C20.6688 19.1714 20.4655 19.3073 20.2418 19.4001C20.018 19.4929 19.7782 19.5406 19.536 19.5406C19.2937 19.5406 19.0539 19.4929 18.8302 19.4001C18.6064 19.3073 18.4031 19.1714 18.232 19L13.014 13.781C12.6683 13.4349 12.4741 12.9657 12.4741 12.4765C12.4741 11.9873 12.6683 11.5181 13.014 11.172V11.172C13.1853 11.0008 13.3213 10.7976 13.4141 10.5738C13.5068 10.3501 13.5546 10.1102 13.5546 9.86799C13.5546 9.62578 13.5068 9.38594 13.4141 9.16218C13.3213 8.93843 13.1853 8.73516 13.014 8.56399L9.75396 5.29999C9.40783 4.9543 8.93865 4.76013 8.44946 4.76013C7.96027 4.76013 7.49109 4.9543 7.14496 5.29999L6.37096 6.07399C5.48079 6.96437 4.92077 8.13164 4.78333 9.38315C4.64589 10.6347 4.93924 11.8956 5.61496 12.958L5.62296 12.97C9.19637 18.2598 13.7509 22.8154 19.04 26.39V26.39Z"
        stroke="#ec1115" stroke-width="1.5" stroke-linecap="round" stroke-linejoin="round" />
</svg>