<svg width="80" height="412" viewBox="0 0 80 412" fill="none" xmlns="http://www.w3.org/2000/svg">
<path d="M0 0H72C76.4183 0 80 3.58172 80 8V404C80 408.418 76.4183 412 72 412H0V0Z" fill="#F7F7F7"/>
<path d="M40 24C31.1553 24 24 31.1553 24 40C24 48.8447 31.1553 56 40 56C48.8447 56 56 48.8447 56 40C56 31.1553 48.8447 24 40 24ZM48.2981 40.3975C46.5093 47.6025 34.6335 50.6335 29.118 43.1801C31.205 45.1677 34.882 45.3665 37.1677 42.9814C35.8261 43.1801 34.8323 41.8385 36.472 41.1429C34.9814 41.2919 34.1366 40.4969 33.7888 39.8509C34.1366 39.5031 34.5342 39.3043 35.2795 39.2547C33.6398 38.8571 33.0435 38.0621 32.8447 37.0683C33.2919 36.9689 33.8882 36.8696 34.1863 36.9193C32.7453 36.1739 32.2484 35.0311 32.3478 34.1863C34.9317 35.1304 36.5714 35.9255 37.913 36.6211C38.4099 36.8696 38.9565 37.3665 39.5528 37.9627C40.3478 35.8758 41.2919 33.7391 42.9814 32.6957C42.9317 32.9441 42.8323 33.1429 42.6335 33.3416C43.0807 32.8944 43.7267 32.5963 44.323 32.5466C44.2733 32.9938 43.5776 33.2919 43.1801 33.441C43.4783 33.3416 45.118 32.5963 45.3168 33.0435C45.5155 33.5404 44.1739 33.7391 43.9752 33.8385C43.8261 33.8882 43.6273 33.9379 43.4783 34.0373C45.5652 33.8385 47.5031 35.5279 48.0994 37.6646C48.1491 37.8137 48.1988 37.9627 48.1988 38.1615C48.9441 38.4596 50.3354 38.1615 50.7826 37.8634C50.4845 38.6087 49.6397 39.1553 48.3975 39.2547C48.9938 39.5031 50.087 39.6522 50.882 39.5031C50.3851 39.9503 49.5901 40.3975 48.2981 40.3975Z" fill="#85868D"/>
<g clip-path="url(#clip0_108_8970)">
<path d="M40 79.3333C31.1553 79.3333 24 86.4886 24 95.3333C24 104.178 31.1553 111.333 40 111.333C48.8447 111.333 56 104.178 56 95.3333C56 86.4886 48.8447 79.3333 40 79.3333ZM43.9752 95.1842H41.2919V104.327H37.6149V95.1842H35.7267V92.1532H37.6149V90.3147C37.6149 87.7805 38.8571 86.2898 41.8385 86.2898C42.882 86.2898 43.0807 86.2898 44.1242 86.2898V89.3706C43.6273 89.3706 42.9317 89.3706 42.5342 89.3706C41.3416 89.3706 41.2919 89.8675 41.2919 90.7122V92.1532H44.2236L43.9752 95.1842Z" fill="#85868D"/>
</g>
<path d="M40 134.667C31.1553 134.667 24 141.822 24 150.667C24 159.511 31.1553 166.667 40 166.667C48.8447 166.667 56 159.511 56 150.667C56 141.822 48.8447 134.667 40 134.667ZM35.0311 158.865H31.4037V147.139H35.0311V158.865ZM33.2422 145.847C32.1491 145.847 31.4534 145.101 31.4534 144.157C31.4534 143.164 32.1491 142.468 33.2422 142.468C34.3354 142.468 35.0311 143.213 35.0807 144.157C35.0807 145.101 34.3354 145.847 33.2422 145.847ZM48.5963 158.865H44.8696V152.356C44.8696 150.865 44.323 149.822 42.9814 149.822C41.9379 149.822 41.1925 150.518 40.9441 151.164C40.8447 151.412 40.795 151.76 40.795 152.058V158.816H37.118V147.089H40.3975V148.679H40.4969C40.9938 147.934 42.3851 146.791 44.323 146.791C46.7578 146.791 48.5963 148.381 48.5963 151.81V158.865Z" fill="#85868D"/>
<path d="M43.772 198.403C42.788 198.357 42.492 198.349 40 198.349C37.508 198.349 37.2133 198.359 36.2293 198.403C33.6973 198.519 32.5187 199.717 32.4027 202.229C32.3587 203.213 32.348 203.508 32.348 206C32.348 208.492 32.3587 208.787 32.4027 209.772C32.5187 212.277 33.692 213.483 36.2293 213.599C37.212 213.643 37.508 213.653 40 213.653C42.4933 213.653 42.788 213.644 43.772 213.599C46.304 213.484 47.4813 212.281 47.5987 209.772C47.6427 208.788 47.652 208.492 47.652 206C47.652 203.508 47.6427 203.213 47.5987 202.229C47.4813 199.719 46.3013 198.519 43.772 198.403ZM40 210.793C37.3533 210.793 35.2067 208.648 35.2067 206C35.2067 203.353 37.3533 201.208 40 201.208C42.6467 201.208 44.7933 203.353 44.7933 206C44.7933 208.647 42.6467 210.793 40 210.793ZM44.9827 202.139C44.364 202.139 43.8627 201.637 43.8627 201.019C43.8627 200.4 44.364 199.899 44.9827 199.899C45.6013 199.899 46.1027 200.4 46.1027 201.019C46.1027 201.636 45.6013 202.139 44.9827 202.139ZM43.1107 206C43.1107 207.719 41.7173 209.111 40 209.111C38.2827 209.111 36.8893 207.719 36.8893 206C36.8893 204.281 38.2827 202.889 40 202.889C41.7173 202.889 43.1107 204.281 43.1107 206ZM40 190C31.164 190 24 197.164 24 206C24 214.836 31.164 222 40 222C48.836 222 56 214.836 56 206C56 197.164 48.836 190 40 190ZM49.2773 209.848C49.124 213.241 47.2347 215.121 43.8493 215.277C42.8533 215.323 42.5347 215.333 40 215.333C37.4653 215.333 37.148 215.323 36.152 215.277C32.76 215.121 30.8787 213.239 30.7227 209.848C30.6773 208.853 30.6667 208.535 30.6667 206C30.6667 203.465 30.6773 203.148 30.7227 202.152C30.8787 198.76 32.7613 196.879 36.152 196.724C37.148 196.677 37.4653 196.667 40 196.667C42.5347 196.667 42.8533 196.677 43.8493 196.724C47.2427 196.88 49.1253 198.767 49.2773 202.152C49.3227 203.148 49.3333 203.465 49.3333 206C49.3333 208.535 49.3227 208.853 49.2773 209.848Z" fill="#85868D"/>
<path d="M40 245.333C31.164 245.333 24 252.497 24 261.333C24 270.169 31.164 277.333 40 277.333C48.836 277.333 56 270.169 56 261.333C56 252.497 48.836 245.333 40 245.333ZM42.9573 270.155C42.4853 270.247 42.3333 269.956 42.3333 269.707V267.145C42.3333 266.275 42.028 265.707 41.692 265.417C43.772 265.187 45.956 264.397 45.956 260.812C45.956 259.792 45.592 258.96 44.9947 258.307C45.0907 258.071 45.4107 257.121 44.9027 255.836C44.9027 255.836 44.12 255.585 42.3387 256.792C41.5907 256.587 40.7933 256.484 40 256.48C39.2067 256.484 38.4093 256.587 37.6627 256.793C35.88 255.587 35.096 255.837 35.096 255.837C34.5907 257.123 34.9093 258.072 35.0067 258.307C34.4093 258.96 34.044 259.792 34.044 260.812C34.044 264.388 36.2227 265.188 38.296 265.424C38.0293 265.657 37.788 266.068 37.704 266.672C37.1707 266.911 35.82 267.323 34.988 265.896C34.988 265.896 34.4947 265 33.5573 264.933C33.5573 264.933 32.6467 264.921 33.4933 265.501C33.4933 265.501 34.1067 265.788 34.5293 266.867C34.5293 266.867 35.0693 268.533 37.6667 267.968V269.705C37.6667 269.952 37.516 270.241 37.0507 270.155C33.3413 268.921 30.6667 265.423 30.6667 261.3C30.6667 256.144 34.8467 251.967 40 251.967C45.1533 251.967 49.3333 256.144 49.3333 261.3C49.3333 265.421 46.6627 268.92 42.9573 270.155Z" fill="#85868D"/>
<path d="M35.7867 315.113H33.1667V312.635H35.544C38.048 312.635 37.7387 315.113 35.7867 315.113ZM43.5053 316.524H47.004C46.8507 314.275 43.8573 314.111 43.5053 316.524ZM35.6387 317.052H33.1667V319.648H35.5987C37.9747 319.647 37.8293 317.052 35.6387 317.052ZM56 316.667C56 325.503 48.836 332.667 40 332.667C31.164 332.667 24 325.503 24 316.667C24 307.831 31.164 300.667 40 300.667C48.836 300.667 56 307.831 56 316.667ZM38.1907 315.689C40.4147 314.552 40.3333 310.381 36.0747 310.319H30.6667V321.959H35.6947C40.972 321.959 40.8827 316.669 38.1907 315.689ZM42.6667 311.468H48V310.301H42.6667V311.468ZM49.2573 316.392C48.5307 311.719 41.1867 311.444 41.1867 317.555C41.1867 323.589 48.0933 322.645 49.1187 319.635H46.6547C45.7947 320.632 43.3107 320.343 43.4493 318.056H49.3293C49.3413 317.316 49.3173 316.785 49.2573 316.392Z" fill="#85868D"/>
<path d="M39.2733 369.313C37.3813 369.869 35.1267 370.156 32.5173 370.175C33.0573 367.969 34.5413 366.135 36.5213 365.129C37.5573 366.484 38.4733 367.88 39.2733 369.313ZM40.56 371.887C40.3947 371.513 40.2213 371.141 40.0387 370.773C37.876 371.453 35.2907 371.799 32.3 371.803L32.2893 372C32.2893 373.872 32.9613 375.589 34.076 376.927C35.764 374.392 37.9307 372.708 40.56 371.887ZM35.2667 378.075C37.3587 379.708 40.1613 380.193 42.7653 379.189C42.4293 377.205 41.8987 375.269 41.1787 373.387C38.7533 374.109 36.7987 375.672 35.2667 378.075ZM44.7 365.901C43.3973 364.896 41.7707 364.289 40 364.289C39.3467 364.289 38.7147 364.38 38.1093 364.535C39.128 365.905 40.0307 367.316 40.8227 368.764C42.4707 368.065 43.7613 367.111 44.7 365.901ZM56 372C56 380.836 48.836 388 40 388C31.164 388 24 380.836 24 372C24 363.164 31.164 356 40 356C48.836 356 56 363.164 56 372ZM49.3333 372C49.3333 366.845 45.1533 362.667 40 362.667C34.8467 362.667 30.6667 366.845 30.6667 372C30.6667 377.155 34.8467 381.333 40 381.333C45.1533 381.333 49.3333 377.155 49.3333 372ZM41.568 370.201C41.7773 370.633 41.9747 371.069 42.164 371.508C43.844 371.219 45.6853 371.236 47.688 371.564C47.5907 369.841 46.9333 368.265 45.8827 367.027C44.8067 368.367 43.3627 369.424 41.568 370.201ZM42.7867 373.044C43.4387 374.789 43.94 376.579 44.2787 378.408C46.028 377.235 47.2667 375.363 47.608 373.196C45.852 372.892 44.2453 372.839 42.7867 373.044Z" fill="#85868D"/>
<defs>
<clipPath id="clip0_108_8970">
<rect width="32" height="32" fill="white" transform="translate(24 79.3333)"/>
</clipPath>
</defs>
</svg>
